<?xml version="1.0" encoding="utf-8"?>
<!-- Generator: Adobe Illustrator 24.0.2, SVG Export Plug-In . SVG Version: 6.00 Build 0)  -->
<svg version="1.1" id="Layer_1" xmlns="http://www.w3.org/2000/svg" xmlns:xlink="http://www.w3.org/1999/xlink" x="0px" y="0px"
	 viewBox="0 0 1024 721.1" style="enable-background:new 0 0 1024 721.1;" xml:space="preserve">
<style type="text/css">
	.st0{display:none;}
	.st1{display:inline;fill:#B5CBDC;}
	.st2{fill:#FDCD08;}
	.st3{fill:#406784;}
	.st4{fill:#264F6E;stroke:#264F6E;stroke-width:2;stroke-linecap:round;stroke-linejoin:round;stroke-miterlimit:10;}
</style>
<g id="Layer_6" class="st0">
	<rect x="-183" y="-107.5" class="st1" width="1024.2" height="768"/>
</g>
<g id="sun">
	<circle class="st2" cx="620.5" cy="151.1" r="151"/>
</g>
<g id="mountains">
	<path class="st3" d="M0.3,59c0,0,20-3.6,31.3-8.2S54,39.7,57.1,39.3s30.8,0.8,39.2-0.8s6.4-0.3,10.7-3.3c4.3-3,16.3-7.7,23.9-8.6
		c7.6-0.9,16.6-1.6,23.2,0c6.7,1.6,15.9,4.1,20.6,4.5c4.7,0.4,16,3.4,36.1,15.1s23.2,13.4,31.9,17.3s22.8,10.3,29.9,13.1
		s10,2,11.4,2.9s5.3,4.1,8,5.1c2.8,1,6.6,3,8.4,5.8s0.3,10.4,0.6,16.9c0.4,6.5,2.4,17.4,1.6,21.7c-0.8,4.3,0.4,8.9,0.2,12.2
		s-0.3,6.3-0.3,6.3s4.6,6.4,7.9,9.8c3.3,3.4,5.9,6.2,8.4,10s5.3,13.9,14.4,19.9s12.4,15.3,18.5,21.2s11,8.2,13.1,10.1s2,3.4,3.7,5.2
		c1.8,1.8,5.9,3.6,6.7,6.4c0.9,2.7,1.1,5.4,2.3,7.4c1.2,2.1,3,2.9,3.4,3.6c0.4,0.7,0.5,3,1.1,3.8s3.4,9.4,4.6,12.6
		s3.7,15.9,4.5,18.3s6.6,18.7,9.1,24.6s3,7.5,3,7.5h112c0,0,2.4-9.5,12.9-13.6c5.1-2,4.9-8.3,10.5-11.3c3-1.6,9,2,14,0.1
		c17.3-6.7,25-15,31.3-20.4c1.8-1.6,1.1-4.9,3.4-6.1c2.2-1.2,4.4-1.1,5.8-0.2c2.4,1.6,6.9,4.5,8.6,3.2c1-0.8,0.6-6.6,3.7-8.2
		c0.8-0.4,3.3-0.8,3.6-5.6s-0.5-7.4,0.4-12s2.2-6.3,2.6-12.7s1.1-10.2,1.7-14.6c0.6-4.4,3.3-14,3.7-15.3s3.2-8.3,5.6-10.6
		c1.1-1.1,3.6-0.5,5.4-2.5c1.8-1.9,5.3-2.6,7.4-1.6s3.1-1.5,5.5-6.3s5.9-8.9,7.4-17s2.8-17.3,6.1-20.6s4.7-6.4,6-10.3
		s5.3-8.8,15-6.3s20.6,6.2,33.2,6.1s20.9-0.8,26.8,4.3c5.9,5.1,16.2,11.3,16.2,11.3s0.9-12,5.8-17.7c5-5.8,8.1-22.3,13.5-23
		c2.3-0.3,3.7-3,3.7-8.1s3.4-31.5,9.3-39.6c2.8-3.8,8.3-7.1,12-6s11-5.3,22-4c4.6,0.5,12.5,4.7,21.1,6.4s12.4,3.3,15.3,4.2
		s8.7,2.1,10.7,9.7c0.4,1.5,5.6,3.5,6.5,5.1c0.9,1.7,2.5,2.7,2.5,2.4c0-0.2-0.1-6.5,1.4-7.6c1.6-1.3,1.4-9.6,5-9.6
		c3.2,0,6.8,2.6,11.7,0.8c1-0.4,2.5-1.4,5.5-0.4c16,5.7,25.5,5.7,33.8,4c1.8-0.3,10.2,4.1,11.4,5.4s9.7,4.9,13.2,6.3
		s12.5,3.2,16,4.8c3.5,1.6,7.6,4,8,3.6s4.3-4.9,9.1-4.6s6.6,1.2,14-1.4c15.9-5.7,20.5-15,20.5-15v350.4H-0.1L0.3,59z"/>
</g>
<g id="front_trees">
	<path class="st4" d="M479.8,223.5c-3.8,0.1-9.2-1-9.2-1s8.8-2.4,14.6-5.9c5.7-3.5,6.5-9.4,6.5-9.4s1.2,5.7,5.8,9.5
		c4.9,4.2,16.8,6.2,16.8,6.2s-3.6,0.9-9,1c-5.3,0.1-10.9-1.9-10.9-1.9s2.8,5.8,8,9.5c5.4,3.8,21.6,3.1,21.6,3.1s-6.8,5.2-14.8,5.1
		c-5.2,0-9.7-1.4-9.7-1.4s5.6,5.1,13.6,6.6c7.8,1.4,19.8-1.8,19.8-1.8s-3.5,6.6-10.8,9.1c-4,1.4-11.8,0.2-11.8,0.2s5,9,12.4,9.7
		c13,1.1,22.5,1.1,22.5,1.1s-10,0.3-13.3-0.5c-2.4-0.5-10.9-5.4-10.9-5.4s9.3,2.3,14,0.6c5.4-2,5.5-6.5,5.5-6.5s-1.6,2.2-6.3,2.1
		c-4-0.1-8.3-4-8.3-4s7,2.6,14.5-2.9c3.9-2.8,7.6-10.5,7.6-10.5s0.5,11.7,5.3,13.8c4.9,2.1,10.8,1.2,10.8,1.2s-3.5,2.8-8.5,2.7
		c-3.4-0.1-6.9-1-6.9-1s2,3.9,4.6,5.3c6.2,3.3,14.9,1.1,14.9,1.1s-3.3,3.6-7.9,4.5c-4.3,0.8-10.3-0.6-10.3-0.6s1.7,3.7,5.7,5.9
		c6.8,3.8,18.9,0.5,18.9,0.5s-3.3,8.3-11.7,8.3c-7,0-10.6-2.4-10.6-2.4s5.1,5,12.2,6.5c10,2.1,19.7,0,19.7,0s-10,8.5-14.3,8.4
		c-6.6-0.2-11.7-2-11.7-2l1.1,8.4c5.5-1.6,11.2-5.7,13.6-10.5c3.5-7.4,3.8-11.4,3.8-11.4s-11.5,3.3-21,2s-13.5-2.6-13.5-2.6
		s28.9-6.9,37.8-18.1c8.9-11.2,9.5-16.4,9.5-16.4s-4,2.3-14,0.4c-10.2-2-18.4-10.2-18.4-10.2s21.5,1.9,34.6-15.2
		c6.3-8.2,5-19.9,5-19.9s3.2,19.3,12.8,25c19.6,11.6,40.5,2.4,40.5,2.4s-2.1,8.8-16.5,14c-8.3,3-19.1,2-19.1,2s8.8,11,22.8,13.9
		c17.4,3.5,29.7-3,29.7-3s-8.7,11.8-22.5,16.1c-13.8,4.3-23.1,3-23.1,3s19,7.4,26.5,7.4c19.3,0,37.5-10.2,37.5-10.2
		s-7.9,15.9-22.8,21.6c-18.4,7.1-30,5.9-26.6,5.8c11.1-0.3,43-12.1,30.6-17.5c-5.1-2.2-6.9-8.2-6.9-8.2s5.5,3,20.5-1.7
		c8.1-2.5,12.7-10.1,12.7-10.1s-6.9,3-10.9,3.1c-4.1,0.1-9.4-2.2-9.4-2.2s12.2-1.2,19.2-7.4s10.4-13.1,10.4-13.1s3.5,8.1,7.3,12.6
		c7.7,9.2,17.4,11.7,17.4,11.7s-3.9,2.6-7.5,2.6c-3.6,0.1-5.7-0.4-5.7-0.4s4.2,4.2,11.5,7.2c4.4,1.8,11.9,0.2,11.9,0.2
		s-3.7,5.4-11.1,8.3c-5.5,2.2-12.5,0.8-12.5,0.8s5.1,5.5,10.9,8.2c8.9,4.1,23.4,1.9,23.4,1.9s-16.3,9.5-20.2,9.4s-7.5-0.9-7.5-0.9
		s4,4.7,6.9,6.5s5.9,3.5,8.1,4.6c2.2,1.1,5.7,2.4,5.7,2.4l-13.1-1.7c0,0,3.2-3.5,4.8-5.6s2.2-3.5,2.2-3.5s-1.5,0.4-3.6,0.4
		s-2.1,0-2.1,0s4.6-4.1,7.5-8.3c2.9-4.2,6.1-8.3,7.5-11.3s1.9-6.7,1.9-6.7s3.5,7.2,9.5,11.5s14.5,6,14.5,6s-1.4,1.5-4.5,1.7
		c-3.2,0.3-4.3,0.5-4.3,0.5s7,9.5,13.7,12.2s6.7,2.7,6.7,2.7s-6.1,3.5-12.9,3.1c-6.8-0.3-5.4-0.3-5.4-0.3s0.5,7.2,7.2,12.9
		c6.8,5.7,15.8,10.5,15.8,10.5s-3,3.3-7.5,5.2c-8.8,3.7-15.4,4.4-15.4,4.4s3.8,6.2,14,6.3c8.7,0.1,13.9-1,13.9-1l-10,13.5l-1.1-11.1
		c2.4-2.7,4.6-7.1,4.6-7.1s1.4,3.6,2.9,6.5s2.7,5,4.6,6.3s4.5,1.8,4.5,1.8s-1.2,0.7-2.7,1.4s-2.7,1-2.7,1s0.6,0.6,1.4,1.3
		s2.3,1.7,2.3,1.7s2.8-2.4,5.5-6.5s5.4-9.4,5.4-9.4s-3.6,2.5-5.8,3.5s-7.2,2.3-7.2,2.3s3.4-3.3,5.1-5.6c1.7-2.3,5-7.7,5-7.7
		s-4.5,1.7-7.5,2.6s-7.2,1.3-7.2,1.3s6.1-4.6,8.4-7.1s7.1-9.8,7.1-9.8s-1.2,0-2.7-0.2s-2.6-0.6-2.6-0.6s5.3-4,7.9-7.5
		s4.3-5.8,5.1-7.5s2-5.9,2-5.9s1.2,2,3,3.7c1.7,1.7,4.2,3.8,7.2,5s8.5,2,8.5,2s-1.7,1.3-2.8,1.8s-2.2,0.7-2.2,0.7s3.6,3,5.9,4.1
		s5.8,2,5.8,2s-1.2,1.3-2.5,2.2s-4.6,2.1-4.6,2.1s2.6,2.2,4.5,2.7s2.5,0.2,2.5,0.2l1.5-1.2c0,0-1.4,0.4-2.9,0.4s-5,0.1-5,0.1
		s4-1.8,5.9-4s2.8-4.3,3.3-5.4c0.4-1.1,0.9-3.5,0.9-3.5s1.2,3.2,2.7,4.4s3.3,2.3,5.9,2.9s4.8,1.1,4.8,1.1s-1.7,1.2-3.7,1.9
		c-2,0.7-3.3,1-3.3,1s1.7,1.1,3.6,2c1.9,0.8,5.7,1.8,5.7,1.8s-0.4,0.9-2.4,2.6s-5,3.2-5,3.2s3.4,1.3,6.4,2.1c3,0.7,4.8,0.8,4.8,0.8
		s-1,1.9-3.4,3.8c-2.4,1.8-4.3,3-4.3,3s1.4,1.5,2.9,2s5.5,1.3,5.5,1.3s0.7-1.1,0.9-1.5s0.2-1.3,0.2-1.3s-0.9,0.4-2.2,0.7
		s-3.4,0.3-3.4,0.3s2.6-2.8,3.8-5.4c1.2-2.5,2.1-6,2.1-6s-2.2,0-4-0.3c-1.8-0.4-3.8-1-3.8-1s2.1-1.6,3.8-3.4s3.8-6.3,3.8-6.3
		s-1,0.5-1.8,0.7c-0.7,0.2-3.3,0.8-3.3,0.8s1.4-1.1,2.5-2.7c1.2-1.6,1.9-2.6,3-4.9s3.1-7.2,3.1-7.2s1,2.3,2.1,3.8s2.9,4,4.4,5
		s3.3,1.7,4.1,1.9c0.8,0.2,2,0.3,2,0.3s-0.9,0.8-1.9,1.2c-1,0.4-1.6,0.6-1.6,0.6s1.8,1.4,3.5,2.2c1.7,0.8,6.1,2.2,6.1,2.2
		s-0.7,0.8-1.6,1.6c-0.9,0.8-4.2,1.5-4.2,1.5s1.8,2.4,3.7,3.7c1.8,1.3,4,2.5,4,2.5s4-3.2,6.4-6.7c2.4-3.4,4.8-9.1,4.8-9.1
		s-4,0.7-6,0.4c-2-0.3-6.8-1.6-6.8-1.6s3.7-2.6,7.8-8.2c4.1-5.7,7.5-13.2,7.5-13.2s-2.3,1.5-4.5,2.2s-3.9,0.9-5.3,0.9
		c-1.4,0-3.7,0-3.7,0s4-2.2,7.1-5.8c3.1-3.5,7.5-10.2,7.5-10.2s-1.8,0.3-2.8,0.3s-4.1-0.4-4.1-0.4s3.2-1.3,6.6-4.6s5.3-5.5,6-7
		s1.3-3.7,1.3-3.7s0.9,3.9,3,6.1s4.8,4.3,6.5,5.3s5.8,2.7,5.8,2.7s-3.1,1.2-5.1,1.5s-4.1,0.4-4.1,0.4s3.5,2.8,6.5,4.6s5.1,3,7.1,3.7
		c2,0.8,5.9,1.7,5.9,1.7s-2.8,1.9-5.5,3s-6.5,2.7-6.5,2.7s2.7,2.3,6,4.1c3.3,1.9,7.4,3.9,9.2,4.4s2.8,0.6,2.8,0.6s-1.3,2.4-5.2,3.5
		s-9.8,1.7-9.8,1.7s2.7,3.1,5.2,5.2c2.4,2,5,3.5,6.4,4.5s2.5,1.2,2.5,1.2s-2.2,1.5-4.2,1.6s-3.6-0.2-3.6-0.2s0.9,1.3,2.9,2.9
		c1.9,1.6,5.4,3.6,5.4,3.6s-3,2.2-5.7,2.7s-4.8,0.7-4.8,0.7s1,1.1,1.9,1.9s1.3,0.9,1.3,0.9s3.2-2.6,4.4-4s2.3-3.4,2.3-3.4
		s-1.4,0.2-2.4,0.3s-1,0-1,0s3-2.5,5.1-4.6c2-2.2,3.8-3.7,5-5.2s2.8-3.8,2.8-3.8s-4,1.4-6.4,1.5s-5.4-0.2-5.4-0.2s3.2-2,5.4-5.2
		s3.5-5.6,3.5-5.6s-3,0.4-4,0.5s-8.6-0.5-8.6-0.5s4-2.2,7.3-6.1s6.4-7.5,7.9-9.6c1.5-2,2.1-3.5,2.1-3.5s-3.7,0.7-6.6,0.5
		c-2.9-0.2-7.2-1.2-7.2-1.2s5.1-1.7,8.9-3.9s6.7-3.8,9.9-8.2s3-5.2,3-5.2s-3.1,1-5.1,1.6s-6.2,0.9-7.7,0.8c-1.3-0.1-2.6-0.8-2.6-0.8
		s5-2,8.7-5.1c3.8-3.2,7.3-6.2,9.3-8.9c2.3-3,3.9-6.8,3.9-6.8s-9.2,1.7-11.8,1.4c-2.6-0.4-6.2-1.1-6.2-1.1s4-1.1,9-4.8
		s9.5-6.6,12.8-11.5s5.8-11.4,6.5-14.3c0.8-2.9,1.5-9.3,1.5-9.3s2.3,7.9,4.3,10.5s5.3,8.3,10.2,12.5c4.8,4.1,9.5,8,12.7,9.7s9,5,9,5
		s-3.3,0.5-6.3,0.3s-7.2-1.2-7.2-1.2s6.8,7.7,12.2,11.1s6,3.7,6,3.7s-6.8,1.5-11,1.1s-11.7-3.4-11.7-3.4s2.8,6.8,10.5,12.5
		s16.2,8.9,16.2,8.9s-4.3,0.8-9.2,1.4s-9.6,1-9.6,1s2.1,4.5,6.9,8.5c4.8,4,12.1,7.1,12.1,7.1s-5.6,1-10.6,0.5s-13.3-2.9-13.3-2.9
		s9.6,10.5,14.9,13.6s9.4,4.3,9.4,4.3s-4.3,3.1-9.6,3.6s-11.7-0.5-11.7-0.5s5.3,6.2,9.2,9.3c3.8,3,6.5,4.6,6.5,4.6s1.6-2.3,2.6-4
		s1.3-2.8,1.3-2.8s-1.6,0.4-4.3,0.1c-2.7-0.2-4.6-1.4-4.6-1.4s4-0.6,7.4-3.3c1.7-1.4,3.1-2.9,4.2-4.4l0.1,395.9H0L-0.1,177
		c0,0,4,6.7,11.5,13.7s16.7,11.5,16.7,11.5s-2.6,2.7-10,2.6S6,201.5,6,201.5s1.3,5.1,4.5,10.8s8.4,11.1,8.4,11.1s3-1.1,5.6-3.2
		s4.6-3.6,4.6-3.6s-2.2,0.3-4.4,0.1s-2.1-0.1-2.1-0.1s3.8-1.4,9.6-5.9s9.8-15.1,9.8-15.1s1.1,2.6,4.6,6.9s9.2,9.3,10.6,10.4
		c1.4,1.1,3.7,2.4,3.7,2.4s-4.8,0-6.9-0.7s-4.8-2-4.8-2s3.4,6.1,8.3,10s9,5.4,11.1,5.9s3.2,0.6,3.2,0.6s-3.7,2.3-9.4,3.8
		s-10.6,1.6-10.6,1.6s4.4,5,9.5,8.6s11.4,7.1,11.4,7.1s-5.1,1.8-7.7,1.9c-2.6,0.1-4.9,0-4.9,0s2.6,1.9,5.2,3.4
		c2.6,1.4,4.1,1.9,4.1,1.9s1.8-1.6,2.9-3.7s1.7-4,1.7-4s0.9,2.3,1.6,3.2s2.3,2.7,2.3,2.7s2.6-1.5,3.4-2.5c0.9-1,2.2-2.5,2.2-2.5
		s-3-0.2-5.4-0.9s-5.8-2.8-5.8-2.8s5.9-2.7,13-8.9s9.9-10,11-11.8s2.4-6.1,2.4-6.1s2.9,8.7,7.3,12.6c4.4,3.9,10,8.1,12.7,9.6
		c2.8,1.5,4.7,2,4.7,2s-3.9,2.6-7.5,2.6c-3.6,0.1-5.7-0.4-5.7-0.4s6.7,10.4,12.9,16.1c6.2,5.7,11.4,8.8,11.4,8.8s-3.5,2.3-7.4,2.1
		s-7.5-0.9-7.5-0.9s4,4.7,6.9,6.5c2.9,1.8,5.9,3.5,8.1,4.6c2.2,1.1,5.7,2.4,5.7,2.4l-13.1-1.7c0,0,3.2-3.5,4.8-5.6s2.2-3.5,2.2-3.5
		s-1.5,0.4-3.6,0.4s-2.1,0-2.1,0s4.6-4.1,7.5-8.3s6.1-8.3,7.5-11.3s1.9-6.7,1.9-6.7s3.5,7.2,9.5,11.5s14.5,6,14.5,6
		s-1.4,1.5-4.5,1.7s-4.3,0.5-4.3,0.5s7,9.5,13.7,12.2s6.7,2.7,6.7,2.7s-6.1,3.5-12.9,3.1c-6.8-0.3-5.4-0.3-5.4-0.3s0.4,7.2,7.2,12.9
		c6.8,5.7,15.8,10.5,15.8,10.5s-3.1,3.3-7.5,5.2c-8.8,3.7-15.4,4.4-15.4,4.4s3.9,6.2,14,6.3c8.7,0.1,13.9-1,13.9-1l-10,13.5
		l-1.1-11.1c2.4-2.7,4.6-7.1,4.6-7.1s1.4,3.6,2.9,6.5s2.7,5,4.6,6.3s4.5,1.8,4.5,1.8s-1.2,0.7-2.7,1.4s-2.7,1-2.7,1s0.6,0.6,1.4,1.3
		c0.8,0.7,2.3,1.7,2.3,1.7s2.8-2.4,5.5-6.5s5.4-9.4,5.4-9.4s-3.6,2.5-5.8,3.5c-2.1,1-7.2,2.3-7.2,2.3s3.4-3.3,5.1-5.6
		c1.7-2.3,5-7.7,5-7.7s-4.5,1.7-7.5,2.6s-7.2,1.3-7.2,1.3s6.1-4.6,8.4-7.1c2.3-2.5,7.1-9.8,7.1-9.8s-1.2,0-2.7-0.2S198,303,198,303
		s5.3-4,7.9-7.5c2.6-3.5,4.3-5.8,5.1-7.5s1.9-5.9,1.9-5.9s1.2,2,2.9,3.7s4.2,3.8,7.2,5s8.5,2,8.5,2s-1.7,1.3-2.8,1.8
		s-2.2,0.7-2.2,0.7s3.6,3,5.9,4.1s5.8,2,5.8,2s-1.1,1.3-2.5,2.2s-4.6,2.1-4.6,2.1s2.6,2.2,4.5,2.7s2.5,0.2,2.5,0.2l1.5-1.2
		c0,0-1.4,0.4-2.9,0.4s-5,0.1-5,0.1s4-1.8,5.9-4c1.9-2.1,2.8-4.3,3.3-5.4c0.4-1.1,0.9-3.5,0.9-3.5s1.1,3.2,2.7,4.4
		c1.6,1.1,3.3,2.3,5.9,2.9s4.8,1.1,4.8,1.1s-1.7,1.2-3.7,1.9c-2.1,0.7-3.3,1-3.3,1s1.7,1.1,3.6,2s5.7,1.8,5.7,1.8s-0.4,0.9-2.4,2.6
		s-5,3.2-5,3.2s3.4,1.3,6.4,2.1c3,0.7,4.8,0.8,4.8,0.8s-1,1.9-3.4,3.8c-2.4,1.8-4.3,3-4.3,3s1.4,1.5,2.9,2c1.5,0.5,5.5,1.3,5.5,1.3
		s0.7-1.1,0.9-1.5c0.1-0.4,0.1-1.3,0.1-1.3s-0.9,0.4-2.2,0.7s-3.4,0.3-3.4,0.3s2.6-2.8,3.8-5.4c1.2-2.5,2.1-6,2.1-6s-2.2,0-4-0.3
		c-1.8-0.4-3.8-1-3.8-1s2.1-1.6,3.8-3.4s3.8-6.3,3.8-6.3s-1,0.5-1.8,0.7s-3.3,0.8-3.3,0.8s1.4-1.1,2.5-2.7s1.9-2.6,3-4.9
		s3.1-7.2,3.1-7.2s1,2.3,2.1,3.8s2.9,4,4.4,5s3.3,1.7,4.1,1.9c0.8,0.2,2,0.3,2,0.3s-0.9,0.8-1.9,1.2c-1,0.4-1.6,0.6-1.6,0.6
		s1.8,1.4,3.5,2.2c1.7,0.8,6.1,2.2,6.1,2.2s-0.7,0.8-1.6,1.6s-4.2,1.5-4.2,1.5s1.8,2.4,3.6,3.7s4,2.5,4,2.5s4-3.2,6.4-6.7
		c2.4-3.4,4.8-9.1,4.8-9.1s-4,0.7-6,0.4c-2-0.3-6.8-1.6-6.8-1.6s3.7-2.6,7.8-8.2s7.5-13.2,7.5-13.2s-2.3,1.5-4.5,2.2
		s-3.9,0.9-5.3,0.9s-3.7,0-3.7,0s4-2.2,7.1-5.8c3.1-3.5,7.5-10.2,7.5-10.2s-1.8,0.3-2.8,0.3s-4.1-0.4-4.1-0.4s3.2-1.3,6.6-4.6
		c3.4-3.3,5.3-5.5,6-7c0.6-1.6,1.3-3.7,1.3-3.7s0.9,3.9,3,6.1c2.1,2.2,4.8,4.3,6.5,5.3s5.9,2.7,5.9,2.7s-3.1,1.2-5.1,1.5
		s-4.1,0.4-4.1,0.4s3.5,2.8,6.5,4.6s5.1,3,7.1,3.7c2,0.8,5.9,1.7,5.9,1.7s-2.8,1.9-5.5,3s-6.5,2.7-6.5,2.7s2.7,2.3,6,4.1
		c3.4,1.9,7.4,3.9,9.2,4.4c1.8,0.5,2.8,0.6,2.8,0.6s-1.3,2.4-5.2,3.5s-9.8,1.7-9.8,1.7s2.7,3.1,5.2,5.2c2.4,2,5,3.5,6.4,4.5
		s2.5,1.2,2.5,1.2s-2.2,1.5-4.2,1.6s-3.6-0.2-3.6-0.2s0.9,1.3,2.9,2.9c1.9,1.6,5.4,3.6,5.4,3.6s-3,2.2-5.7,2.7s-4.8,0.7-4.8,0.7
		s1,1.1,1.9,1.9s1.3,0.9,1.3,0.9s3.2-2.6,4.4-4s2.3-3.4,2.3-3.4s-1.4,0.2-2.4,0.3c-1,0-1,0-1,0s3-2.5,5.1-4.6c2-2.2,3.8-3.7,5-5.2
		s2.8-3.8,2.8-3.8s-4,1.4-6.4,1.5s-5.4-0.2-5.4-0.2s3.2-2,5.4-5.2s3.5-5.6,3.5-5.6s-3,0.4-4,0.5s-8.6-0.5-8.6-0.5s4-2.2,7.3-6.1
		c3.4-3.9,6.4-7.5,7.9-9.6s2.1-3.5,2.1-3.5s-3.7,0.7-6.6,0.5s-7.2-1.2-7.2-1.2s5.1-1.7,8.9-3.9s6.7-3.8,9.9-8.2s3-5.2,3-5.2
		s-3.1,1-5.1,1.6c-2.1,0.6-6.2,0.9-7.7,0.8c-1.3-0.1-2.6-0.8-2.6-0.8s5-2,8.7-5.1c3.8-3.2,7.3-6.2,9.4-8.9c2.4-3,3.9-6.8,3.9-6.8
		s-9.2,1.7-11.8,1.4s-6.2-1.1-6.2-1.1s4-1.1,9-4.8s9.5-6.6,12.8-11.5s5.8-11.4,6.5-14.3s1.5-9.3,1.5-9.3s2.3,7.9,4.3,10.5
		s5.3,8.3,10.2,12.5s9.5,8,12.7,9.7s9,5,9,5s-3.3,0.5-6.3,0.3s-7.2-1.2-7.2-1.2s6.8,7.7,12.2,11.1s6,3.7,6,3.7s-6.8,1.5-11,1.1
		s-11.7-3.4-11.7-3.4s2.8,6.8,10.5,12.5c7.7,5.7,16.2,8.9,16.2,8.9s-4.3,0.8-9.1,1.4s-9.6,1-9.6,1s2.1,4.5,6.9,8.5
		s12.1,7.1,12.1,7.1s-5.6,1-10.6,0.5s-13.3-2.9-13.3-2.9s9.6,10.5,14.9,13.6c5.3,3,9.4,4.3,9.4,4.3s-4.3,3.1-9.6,3.6
		s-11.7-0.5-11.7-0.5s5.3,6.2,9.1,9.3c3.8,3,6.5,4.6,6.5,4.6s1.6-2.3,2.6-4s1.4-2.8,1.4-2.8s-1.6,0.4-4.3,0.1
		c-2.7-0.2-4.6-1.4-4.6-1.4s4-0.6,7.4-3.3s5.6-6.4,6.3-8.1c0.8-1.7,2.5-8.5,2.5-8.5s1.4,4.3,3.2,6.6c1.8,2.3,5.1,3.9,7,4.7
		s5.2,1.9,5.2,1.9s-1.3,1-3.4,1.2s-4,0-4,0s2.8,3.6,5.6,5.5c2.8,1.9,8.2,3.8,8.2,3.8s0.9-1.2,1.1-1.6s0.3-0.8,0.3-0.8s-3.3,0-6-0.9
		s-4.5-2-4.5-2s2.1-0.4,5.7-4s5.9-7.1,7.9-10.3s4.1-7.7,5.2-10.9s2.2-8.3,2.2-8.3s3.2,5.6,5.6,8.6s5.5,6.6,5.5,6.6l8.3-13.9
		c0,0-4.8,2.4-13.4,1.7c-9.7-0.8-17.9-8.2-17.9-8.2s8.2,0,15.5-1.4c10.7-1.9,15.9-11.9,15.9-11.9s-9,2.5-14.7,2.4
		c-8.1-0.1-13.8-2.7-13.8-2.7s13.1-1.2,21.1-6.4c5.4-3.5,8.9-10.9,8.9-10.9s-4.3,2.7-10.8,2c-6.1-0.7-9.9-3.6-9.9-3.6
		s12.5-0.2,18.6-4.3c4.1-2.7,6.6-9.5,6.6-9.5S482.4,223.5,479.8,223.5z"/>
	<path class="st4" d="M310.5,189.5"/>
</g>
</svg>
