<?xml version="1.0" encoding="utf-8"?>
<!-- Generator: Adobe Illustrator 24.0.2, SVG Export Plug-In . SVG Version: 6.00 Build 0)  -->
<svg version="1.1" id="front" xmlns="http://www.w3.org/2000/svg" xmlns:xlink="http://www.w3.org/1999/xlink" x="0px" y="0px"
	 viewBox="0 0 1024 995.9" style="enable-background:new 0 0 1024 995.9;" xml:space="preserve">
<style type="text/css">
	.st0{fill:#0D3151;}
	.st1{fill:#052439;}
	.st2{fill:#052439;stroke:#052439;stroke-width:0.25;stroke-linecap:round;stroke-linejoin:round;}
	.st3{fill:#052439;stroke:#052439;stroke-width:0.75;stroke-linecap:round;stroke-linejoin:round;}
	.st4{fill:#FDCD08;}
</style>
<title>front</title>
<g id="Layer_4">
	<path class="st0" d="M0,769.4c0,0,28.5,7.6,39.5,9.4s26.7,3.1,26.7,3.1s5-7.9,7-10.4s7.1-8.9,12.6-11.9s7.9-4.4,8.6-5.2
		s2.5-2.8,3.7-3.2c2.2-0.7,4.2-2.1,5.6-4.1c2.3-3,10.4-14,13.3-16.9s4.9-4.7,7.4-4.5s4.3,0.8,5.4,3.3s1,11.9,0.7,18.2
		c-0.3,9.5,0.1,19,1.4,28.4c1.4,8.7,5.8,18.3,7.3,24.2s2.9,14.4,2.8,17.3c0,2.3,0.6,4.5,1.8,6.5c0.5,0.9,0.9,1.9,1.1,2.8
		c2.2-1.8,4.3-3.8,6.2-5.9c1.4-1.7,2.6-3.7,3.4-5.7c-2.2,1.3-4.6,2.5-7,3.5c-1,0.3-2,0.6-3,0.7c2.2-2,4.4-4.1,6.4-6.4
		c2-2.3,3.9-4.8,5.6-7.3c-0.6,0.5-1.3,1-2,1.4c-0.6,0.4-1.3,0.7-2.1,0.9c1.6-1.2,3-2.4,4.5-3.8c0.6-0.8,1.2-1.7,1.7-2.6
		c-1.2,0.9-2.5,1.8-3.8,2.5c-1.7,0.7-3.4,1.2-5.2,1.5c2.3-1.6,4.3-3.6,6-5.8c3.7-4.4,6.7-7.9,8-9.6s4.8-9.7,4.8-9.7
		c0.2,2.7,1.2,5.3,2.7,7.5c2,2.8,4.3,5.4,6.8,7.8c1.4,1.4,3,2.7,4.7,3.9c-0.9,0.3-1.9,0.4-2.9,0.4c-1.3,0-2.6-0.2-3.9-0.5
		c0,0,1.8,2.2,2.5,2.8c0.7,0.6,1.5,1.1,2.4,1.6c-0.7,0-1.4-0.1-2.1-0.3l-0.8-0.3c1.1,1.6,2.4,3,4,4.2c2.9,2.3,5.5,4.2,7.6,5.6
		s6.1,3.4,6.1,3.4c-2,0.5-4.1,0.5-6.1,0.2c-3-0.4-5.9-1.2-8.7-2.3c1.4,1.9,3,3.6,4.9,5c3.3,2.5,7,4.9,7,4.9c-1.1,0-2.2-0.1-3.2-0.3
		c0,0,5.9,4.2,9.7,6.5c2.3,1.4,4.6,2.6,7.1,3.7c0,0-1.8,0-4,0c-3.6-0.5-7.2-1.3-10.6-2.6c-1.1-0.5-2.1-1-3.2-1.6
		c0,0,1.1,2.9,5.1,5.6s6.6,4.6,6.6,4.6c-1.8,0.1-3.6,0-5.3-0.3c-1.6-0.4-3.2-0.9-4.8-1.6c0,0,4.1,3.8,5.4,4.8c0.5,0.4,1,0.8,1.6,1.1
		c0,0,7.3-2.5,11.2-2.6c4.1-0.3,8.3-0.9,12.3-1.8c2.7-0.6,7.1-1.7,11.2-1.4c3.9,0.1,7.6,1.7,10.4,4.4c2.7,2.8,11.4,13.5,14.9,19.5
		c3.5,6,6.9,12.1,10.1,16.2s8.3,13.5,10,15.4s3.6,3.5,9.7,3.8s14.2,1.3,19.5,3.9s17.7,3.7,17.7,3.7s0.1-11.5,3.8-17.6
		s13.1-16.1,13.3-21.7s-4.7-14.6-4.1-15.4s11.1-3.4,23.5-10.7s21.4-14.9,24.5-18.8s3.4-6.4,3.4-6.4c-3.2,1.3-6.6,2.1-10.1,2.3
		c-4.9,0.2-15.3-1.5-15.3-1.5s8.3-5,15.7-10c5.9-4.2,11.6-8.8,17.1-13.6c-1.7,0.7-3.5,1.2-5.4,1.4l-4.4,0.2c2.5-1.8,4.8-3.7,6.9-5.9
		c1.6-1.9,2.9-3.9,4-6.1c-1.9,1.3-4,2.3-6.2,3.1c-3.5,1.2-19.5,2.3-19.5,2.3s6.4-4.8,13.8-10.5s15.1-14.9,18.6-19.1
		c2.2-2.7,4.2-5.5,5.9-8.6c0,0-7.1,3.9-11.7,4.1s-14.4-0.9-14.4-0.9s10.1-4.8,16.7-9.6s21-20.1,21-20.1c-2.5,1.4-5.2,2.3-8,2.9
		c-3.7,0.6-9.5,1.3-9.5,1.3c7.7-4.9,14.6-10.7,20.8-17.4c10.7-11.4,19.6-20.4,23.6-26.3s8.7-14.4,8.7-14.4
		c2.7,9.3,7.2,17.9,13.1,25.5c14.7,18,27.2,26.2,27.2,26.2c-4.1,0.8-8.3,0.8-12.4,0.1c-3.2-0.8-6.4-1.7-9.6-2.9
		c2.8,6.9,6.1,13.6,9.9,20.1c9.9,17.4,29.5,28,29.5,28s-7.9,0.8-12.1,0s-13.8-5-13.8-5s3.3,6.3,4.9,8.3c1.9,2,4,3.9,6.1,5.7
		c-1.4-0.2-2.7-0.5-4.1-0.9c-0.9-0.3-1.9-0.6-2.7-1.1c2.9,5.9,6.4,11.5,10.4,16.7c6.9,9,14.6,17.6,14.6,17.6
		c-3.3-0.1-6.7-0.6-9.9-1.5c-4.6-1.4-18.1-10.4-18.1-10.4s7.6,11.2,14.1,18s22.6,18.6,22.6,18.6c-3.6,0.3-7.2,0.4-10.8,0.2
		c-4.8-0.3-18.4-4.6-18.4-4.6s12.1,15.1,22.2,22.7c10.2,7.5,21.5,16.6,21.5,16.6s-3.6,1.9-9.9,1.8s-26.4-4.9-26.4-4.9
		c2,3,4.2,5.8,6.5,8.5c2.2,2.2,2.8,2.7,2.8,2.7s8.6-8.2,14.4-8.8s10.7,1.8,14.9,5.3s6.7,6.7,10.2,8.1c3.7,1.3,7.3,2.8,10.8,4.5
		c2.7,1.5,6.2,3.8,10.2,5c2.5,0.7,5,1.2,7.5,1.5c1.5,0.4,3.1,0.3,4.6-0.2c2.2-0.7,10-1.3,16.8,0.1s11.8,2.1,16.2,2.6
		s11.6,4.1,11.6,4.1c3.3-4.1,7-8,10.9-11.5c6-5.2,13.8-11.9,20.5-14.3s10.4-4.2,16.9-3.8s10.4,2.4,13.5,3.7c2.5,0.9,5,1.5,7.6,1.7
		c0,0,5.1-4.2,8.7-7.8c2.3-2.5,4.1-5.3,5.4-8.5c-3.5,0.5-7.1,0.4-10.6-0.2c-5.6-1-19.4-5.1-19.4-5.1c6.2-1.6,12.2-3.8,18-6.5
		c12-5.6,23.4-12.3,34.2-20.1c9.4-6.9,22.3-23.2,22.3-23.2s-2.8,0.9-6.4,1.9s-18,1.2-18,1.2s3.2-3,11-11s16.8-21.2,18.9-25.3
		s4.5-8.9,4.5-8.9s-11.6,10.3-18.6,13.4s-11.4,3.1-11.4,3.1s13.7-9.8,23.2-21.5s13.3-17.1,13.3-17.1c-2.7,2.1-5.7,3.6-8.9,4.7
		c-2.4,0.7-4.9,1.2-7.4,1.5c0,0,12.2-8.5,19.2-16.7c4.3-5,8.1-10.4,11.5-16.1c0,0-3,0.9-6.5,2s-15,1.4-15,1.4s11.8-10.7,19.5-19.1
		s16.5-19.1,20.2-24.9c2.5-3.9,4.6-8,6.3-12.3c0,0,2.9,12.6,6.7,17.7s14.2,17.6,21.6,23c4.1,3,8.4,5.8,12.9,8.2
		c0,0-4.7,0.9-10.3,1.6s-14.1-0.6-14.1-0.6s10.3,19,19.6,27.9s22.9,16.2,22.9,16.2s-5.7,2.4-8.7,1.9s-11.4-3-11.4-3
		s4.5,8.7,8.9,14.1s8.9,11.3,8.9,11.3s-6.5-0.2-9.5-0.6c-1.4-0.2-2.9-0.4-4.3-0.8c0,0,5.8,5.7,8.8,8.1s4.8,2.8,4.8,2.8
		c1.3,0.6,2.6,1.3,3.8,2.1l4.4,3c0,0,4.5-6.6,6.3-8.5s3.6-3.4,4.3-3.7c0.5-0.1,1-0.3,1.5-0.3c1.3-4.6,3-9.1,5-13.5
		c2.5-5,7.2-15.9,13.4-25.4s10.7-17.5,14.5-19.5s7.3-1,8.4-0.1c2.2,1.8,3.8,4.2,4.7,6.8c1.1,3.5,2.6,8.8,5.5,12.9s10.1,13,13.2,16.6
		s7,6.5,7,9.2s2,42.8,8,53.2s7.9,21.5,12.3,21.8s7.9,5.7,10.9,9.8s5.2,1.4,9.8-2.2s19.8-3.6,19.8-3.6v104.3c0,0-23.1-5.3-42.5-5.3
		S879,938,869.7,939.3s-5.6,4.5,0.6,5.6s18.6,4.3,19.7,10.3s-0.6,13.5-2.3,15.6s-22.6,1.5-34.6,1.9s-27.6,2.8-30.8,1.1
		s-5.3-2.5-7.2-4.6c-1.1-1.1-2-2.4-2.6-3.8c-1.7,0.3-3.4,0.3-5.1,0.1c-2-0.5-10.7-3.2-13.9-3.2s-22.7,1-30,1.5s-19.3-0.7-22.9-5.6
		s-4.7-11.8-3.5-14.5s2.1-4.3,2.1-4.3s-32.4,1.1-45.3,1.2s-36.8-0.3-52.8,0s-45.4-0.2-55.2-0.7s-55.2-2.8-58.3-2.7s-9.3,5.5-8.5,5.7
		c4.1,1.1,8.3,1.8,12.6,1.8c7.9,0.3,15.9,1.2,23.7,2.7c9.5,1.7,19.1,2.7,28.7,2.9c7.5-0.1,33,1.8,41.9,2.3s22.8,2.7,25.7,8.8
		s2.6,10.4-3.8,14.7s-20.8,7-29.6,7.3s-29.6,0.1-39.8,1.2s-30.3,2.5-41.2,1.5s-29.1-6.1-36.6-5.8s-29.3,2.7-41.4,6.2
		s-21.8,3.5-24.7,1.3s-3.3-7.6-0.8-11s11-15.5,10.7-15.9s-16.4-1.1-21.1-2.9s-12.2-4.1-11.5-9.5s3.5-7.8,6.2-9.7s5.3-4,5.3-4
		l-90.6,1.2c-27.4,0.4-60.8-2.9-77.4-2.5s-29.8,0-31,0.2s-5.3-0.1-7.7,0.4s-60.7,1.6-25.5,29.7c3.3,2.6,23,10.6,32.8,13.6
		c15.2,4.7,19.8,19.9-11.4,15.3s-48.1-12.5-62.7-19.2c-21.3-9.8-28.8,0-48.3-4.5c-6.8-1.5-13.8-4.4-25.1-6.2s-24.1-3.8-35.8-2.4
		s-27,1.8-32.2,1.8S0,962.3,0,962.3V769.4z"/>
</g>
<rect x="276.7" y="954.9" class="st1" width="72.7" height="32.8"/>
<rect x="348.8" y="952.8" class="st2" width="14.9" height="21.8"/>
<ellipse class="st1" cx="313" cy="987.8" rx="36.3" ry="8.2"/>
<ellipse class="st1" cx="308.3" cy="955.3" rx="36.3" ry="3.2"/>
<polygon class="st3" points="313,914.9 272.5,955.1 356.3,955.4 "/>
<polygon class="st3" points="354.9,940.6 344.6,955.3 366,954.6 "/>
<polygon class="st3" points="266.7,911.3 255.3,937.8 279.9,937.8 "/>
<ellipse class="st1" cx="267.6" cy="937.9" rx="12.7" ry="3.1"/>
<path class="st3" d="M221.6,899.7l-19.9,55.6c-0.1,0.2,0,0.4,0.2,0.4c0,0,0,0,0,0h0.1h43.3c0.2,0,0.3-0.1,0.4-0.3c0,0,0-0.1,0-0.1
	l-23.4-55.6c-0.1-0.2-0.3-0.2-0.4-0.2c0,0,0,0,0,0C221.7,899.5,221.7,899.5,221.6,899.7z"/>
<ellipse class="st1" cx="223.7" cy="955.7" rx="22.4" ry="6.9"/>
<polygon class="st3" points="391.6,914.3 382,944.4 403,944.4 "/>
<ellipse class="st1" cx="392.5" cy="944.6" rx="10.9" ry="3.7"/>
<ellipse class="st1" cx="355.6" cy="974.6" rx="8.2" ry="2.8"/>
<rect x="314.4" y="965" class="st4" width="11.5" height="17"/>
<path class="st1" d="M311.3,907.1v0.4c-11.3-36.4-4.2-78.8,6.8-115.4s26-71.6,30.8-110.6c7.1-57.2-8.3-114.6-22.2-169.2
	s-27-114.1-15.4-169.8c13.5-64.9,57.4-109.7,73.3-173.5C399.5,109.3,384,58.3,378.4,0c54.4,43,69.5,166.4,50.3,242.3
	c-11.2,44.3-32.5,82.6-43.9,126.8c-11.7,45.2-12.6,95.2-6.1,142.4c5.6,40.3,16.5,79.9,14.6,120.9
	C388.8,732.9,310.3,806.4,311.3,907.1z"/>
</svg>
